{
    "asset" : {
        "generator" : "Khronos glTF Blender I/O v1.1.46",
        "version" : "2.0"
    },
    "scene" : 0,
    "scenes" : [
        {
            "name" : "Scene",
            "nodes" : [
                0
            ]
        }
    ],
    "nodes" : [
        {
            "mesh" : 0,
            "name" : "MK6_OBJ",
            "rotation" : [
                1,
                0,
                0,
                -1.3435885648505064e-07
            ],
            "scale" : [
                0.18661141395568848,
                0.18661141395568848,
                0.18661141395568848
            ]
        }
    ],
    "materials" : [
        {
            "doubleSided" : true,
            "emissiveFactor" : [
                0,
                0,
                0
            ],
            "name" : "SciFi_Fighter_MK6",
            "pbrMetallicRoughness" : {
                "baseColorTexture" : {
                    "index" : 0,
                    "texCoord" : 0
                },
                "metallicFactor" : 1,
                "roughnessFactor" : 0.34220531582832336
            }
        }
    ],
    "meshes" : [
        {
            "name" : "MK6_OBJ",
            "primitives" : [
                {
                    "attributes" : {
                        "POSITION" : 0,
                        "NORMAL" : 1,
                        "TEXCOORD_0" : 2
                    },
                    "indices" : 3,
                    "material" : 0
                }
            ]
        }
    ],
    "textures" : [
        {
            "source" : 0
        }
    ],
    "images" : [
        {
            "bufferView" : 4,
            "mimeType" : "image/png",
            "name" : "Image_0"
        }
    ],
    "accessors" : [
        {
            "bufferView" : 0,
            "componentType" : 5126,
            "count" : 4694,
            "max" : [
                492.7145690917969,
                262.9715576171875,
                654.3101806640625
            ],
            "min" : [
                -492.71435546875,
                -262.9715576171875,
                -654.3101806640625
            ],
            "type" : "VEC3"
        },
        {
            "bufferView" : 1,
            "componentType" : 5126,
            "count" : 4694,
            "type" : "VEC3"
        },
        {
            "bufferView" : 2,
            "componentType" : 5126,
            "count" : 4694,
            "type" : "VEC2"
        },
        {
            "bufferView" : 3,
            "componentType" : 5123,
            "count" : 6672,
            "type" : "SCALAR"
        }
    ],
    "bufferViews" : [
        {
            "buffer" : 0,
            "byteLength" : 56328,
            "byteOffset" : 0
        },
        {
            "buffer" : 0,
            "byteLength" : 56328,
            "byteOffset" : 56328
        },
        {
            "buffer" : 0,
            "byteLength" : 37552,
            "byteOffset" : 112656
        },
        {
            "buffer" : 0,
            "byteLength" : 13344,
            "byteOffset" : 150208
        },
        {
            "buffer" : 0,
            "byteLength" : 1281740,
            "byteOffset" : 163552
        }
    ],
    "buffers" : [
        {
            "byteLength" : 1445292,
            "uri" : "data:application/octet-stream;base64,"
        }
    ]
}
