{
	"asset":{
		"generator":"Khronos glTF Blender I/O v3.5.30",
		"version":"2.0"
	},
	"extensionsUsed":[
		"KHR_materials_clearcoat"
	],
	"scene":0,
	"scenes":[
		{
			"name":"Scene",
			"nodes":[
				0
			]
		}
	],
	"nodes":[
		{
			"mesh":0,
			"name":"boat_v3"
		}
	],
	"materials":[
		{
			"doubleSided":true,
			"extensions":{
				"KHR_materials_clearcoat":{
					"clearcoatFactor":1,
					"clearcoatRoughnessFactor":0.029999999329447746
				}
			},
			"name":"boat_v3",
			"pbrMetallicRoughness":{
				"metallicFactor":0.19637462496757507,
				"roughnessFactor":0.8773414492607117
			}
		}
	],
	"meshes":[
		{
			"name":"Cube.005",
			"primitives":[
				{
					"attributes":{
						"POSITION":0,
						"TEXCOORD_0":1,
						"NORMAL":2,
						"TANGENT":3
					},
					"indices":4,
					"material":0
				}
			]
		}
	],
	"accessors":[
		{
			"bufferView":0,
			"componentType":5126,
			"count":1502,
			"max":[
				2.349991798400879,
				0.5893678665161133,
				0.7728320360183716
			],
			"min":[
				-2.350314140319824,
				-1.9302663645248685e-07,
				-0.7728323936462402
			],
			"type":"VEC3"
		},
		{
			"bufferView":1,
			"componentType":5126,
			"count":1502,
			"type":"VEC2"
		},
		{
			"bufferView":2,
			"componentType":5126,
			"count":1502,
			"type":"VEC3"
		},
		{
			"bufferView":3,
			"componentType":5126,
			"count":1502,
			"type":"VEC4"
		},
		{
			"bufferView":4,
			"componentType":5123,
			"count":3606,
			"type":"SCALAR"
		}
	],
	"bufferViews":[
		{
			"buffer":0,
			"byteLength":18024,
			"byteOffset":0,
			"target":34962
		},
		{
			"buffer":0,
			"byteLength":12016,
			"byteOffset":18024,
			"target":34962
		},
		{
			"buffer":0,
			"byteLength":18024,
			"byteOffset":30040,
			"target":34962
		},
		{
			"buffer":0,
			"byteLength":24032,
			"byteOffset":48064,
			"target":34962
		},
		{
			"buffer":0,
			"byteLength":7212,
			"byteOffset":72096,
			"target":34963
		}
	],
	"buffers":[
		{
			"byteLength":79308,
			"uri":"data:application/octet-stream;base64,"
		}
	]
}
